<svg xmlns="http://www.w3.org/2000/svg" xmlns:xlink="http://www.w3.org/1999/xlink" style="margin: auto; background: none; display: block; shape-rendering: auto;" width="200px" height="200px" viewBox="0 0 100 100" preserveAspectRatio="xMidYMid"><g transform="rotate(0 50 50)"><rect x="48.5" y="30" rx="1" ry="1" width="3" height="10" fill="#f27a1a"><animate attributeName="opacity" values="1;0" keyTimes="0;1" dur="1s" begin="-0.9s" repeatCount="indefinite"/></rect></g><g transform="rotate(36 50 50)"><rect x="48.5" y="30" rx="1" ry="1" width="3" height="10" fill="#f27a1a"><animate attributeName="opacity" values="1;0" keyTimes="0;1" dur="1s" begin="-0.8s" repeatCount="indefinite"/></rect></g><g transform="rotate(72 50 50)"><rect x="48.5" y="30" rx="1" ry="1" width="3" height="10" fill="#f27a1a"><animate attributeName="opacity" values="1;0" keyTimes="0;1" dur="1s" begin="-0.7s" repeatCount="indefinite"/></rect></g><g transform="rotate(108 50 50)"><rect x="48.5" y="30" rx="1" ry="1" width="3" height="10" fill="#f27a1a"><animate attributeName="opacity" values="1;0" keyTimes="0;1" dur="1s" begin="-0.6s" repeatCount="indefinite"/></rect></g><g transform="rotate(144 50 50)"><rect x="48.5" y="30" rx="1" ry="1" width="3" height="10" fill="#f27a1a"><animate attributeName="opacity" values="1;0" keyTimes="0;1" dur="1s" begin="-0.5s" repeatCount="indefinite"/></rect></g><g transform="rotate(180 50 50)"><rect x="48.5" y="30" rx="1" ry="1" width="3" height="10" fill="#f27a1a"><animate attributeName="opacity" values="1;0" keyTimes="0;1" dur="1s" begin="-0.4s" repeatCount="indefinite"/></rect></g><g transform="rotate(216 50 50)"><rect x="48.5" y="30" rx="1" ry="1" width="3" height="10" fill="#f27a1a"><animate attributeName="opacity" values="1;0" keyTimes="0;1" dur="1s" begin="-0.3s" repeatCount="indefinite"/></rect></g><g transform="rotate(252 50 50)"><rect x="48.5" y="30" rx="1" ry="1" width="3" height="10" fill="#f27a1a"><animate attributeName="opacity" values="1;0" keyTimes="0;1" dur="1s" begin="-0.2s" repeatCount="indefinite"/></rect></g><g transform="rotate(288 50 50)"><rect x="48.5" y="30" rx="1" ry="1" width="3" height="10" fill="#f27a1a"><animate attributeName="opacity" values="1;0" keyTimes="0;1" dur="1s" begin="-0.1s" repeatCount="indefinite"/></rect></g><g transform="rotate(324 50 50)"><rect x="48.5" y="30" rx="1" ry="1" width="3" height="10" fill="#f27a1a"><animate attributeName="opacity" values="1;0" keyTimes="0;1" dur="1s" begin="0s" repeatCount="indefinite"/></rect></g></svg>